<svg xmlns="http://www.w3.org/2000/svg" width="173" height="104" viewBox="0 0 173 104" fill="none"><path d="M113.889 13.0262C112.743 15.0337 111.514 16.9647 110.356 18.937C109.848 19.8017 109.328 20.6577 108.821 21.5225C108.702 21.7269 108.555 21.8004 108.32 21.799C106.838 21.7901 105.356 21.7843 103.874 21.8034C103.577 21.8078 103.449 21.6637 103.319 21.4519C101.723 18.8472 100.123 16.2456 98.5251 13.6424C98.5104 13.6189 98.4824 13.6042 98.403 13.5321C98.403 13.7453 98.403 13.9086 98.403 14.0733C98.403 18.9767 98.3985 23.8815 98.4118 28.7848C98.4133 29.2055 98.3264 29.3525 97.8688 29.3481C95.4952 29.3231 93.1217 29.3275 90.7481 29.3466C90.3582 29.3496 90.2772 29.2275 90.2772 28.8628C90.2861 19.4046 90.2875 9.94797 90.2758 0.489824C90.2758 0.0765544 90.4052 -0.00286401 90.7878 7.74116e-05C93.129 0.0177259 95.4717 0.0147845 97.8129 0.00154812C98.1337 7.74116e-05 98.3294 0.0868494 98.503 0.367755C100.919 4.26073 103.347 8.14782 105.771 12.0364C106.153 12.6497 106.153 12.6555 106.546 12.0231C108.954 8.1434 111.361 4.26367 113.76 0.376579C113.92 0.117734 114.083 7.74116e-05 114.4 0.00154812C116.79 0.0147845 119.179 0.0162552 121.569 0.00154812C121.921 7.74116e-05 122.028 0.0853787 122.027 0.450115C122.016 9.93914 122.016 19.4296 122.025 28.9187C122.025 29.2569 121.924 29.3466 121.593 29.3452C119.187 29.3319 116.781 29.329 114.376 29.3481C113.967 29.3511 113.88 29.2231 113.88 28.8363C113.892 23.7418 113.889 18.6458 113.889 13.5512C113.889 13.3762 113.889 13.2012 113.889 13.0262Z" fill="#008AAD"></path><path d="M79.7934 42.8913C79.2734 42.4983 78.9267 41.9662 78.5062 41.5114C77.4764 40.3924 76.4862 39.2391 75.4924 38.0875C75.2436 37.7991 74.9741 37.6721 74.5811 37.6755C72.7224 37.6961 70.8654 37.6704 69.0067 37.6944C68.5261 37.7013 68.3545 37.5657 68.3631 37.0663C68.3888 35.7671 68.3716 34.4644 68.3528 33.1652C68.3425 32.4066 68.2858 31.6463 68.2687 30.8877C68.2635 30.656 68.1417 30.5136 68.0026 30.3608C65.8024 27.9477 63.6021 25.5364 61.4104 23.1164C61.165 22.8453 60.9041 22.7406 60.5386 22.744C58.7914 22.7612 57.046 22.7406 55.2988 22.7612C54.8852 22.7663 54.7565 22.653 54.7616 22.2308C54.7839 20.4476 54.7479 18.6627 54.7856 16.8795C54.7977 16.332 54.6277 15.9253 54.2776 15.5374C52.0533 13.0728 49.8308 10.6048 47.6202 8.12825C47.4383 7.92573 47.2444 7.92573 47.023 7.92573C45.2947 7.92573 43.5664 7.90513 41.8381 7.93946C41.3678 7.94804 41.2014 7.76268 41.1894 7.35764C41.1722 6.81873 41.1756 6.27982 41.1756 5.74092C41.1739 4.01263 41.1859 2.28435 41.167 0.55778C41.1636 0.166471 41.2374 0.00342525 41.6802 0.00342525C54.2416 0.0154391 66.803 0.0154391 79.3643 0.00170898C79.893 0.00170898 79.8621 0.266015 79.8621 0.622999C79.8586 9.1151 79.8586 17.6055 79.8586 26.0976C79.8586 31.4867 79.8586 36.8741 79.8552 42.2631C79.8569 42.4571 79.9101 42.6613 79.7934 42.8913ZM75.513 12.1838C75.6452 8.96407 72.973 5.85591 69.2641 5.84561C65.5381 5.83531 62.962 8.73237 62.9156 12.1031C62.8658 15.7674 66.0512 18.4413 69.192 18.4413C72.6709 18.4447 75.6229 15.5082 75.513 12.1838Z" fill="#008AAD"></path><path d="M139.864 50.2164C139.864 54.9129 139.857 59.6094 139.876 64.3059C139.877 64.7779 139.74 64.8793 139.289 64.8749C136.718 64.8529 134.146 64.8529 131.576 64.8749C131.136 64.8793 131.057 64.7426 131.058 64.3382C131.075 61.043 131.06 57.7478 131.077 54.4512C131.08 54.035 130.942 53.9615 130.561 53.963C128.054 53.9792 125.547 53.9792 123.04 53.963C122.648 53.96 122.53 54.0556 122.531 54.46C122.547 57.7552 122.533 61.0504 122.55 64.3471C122.553 64.7691 122.446 64.8779 122.022 64.8735C119.452 64.8529 116.88 64.8558 114.309 64.8705C113.93 64.8735 113.789 64.7999 113.789 64.3823C113.8 54.9261 113.8 45.4684 113.79 36.0122C113.79 35.6445 113.879 35.5254 114.265 35.5269C116.868 35.5446 119.471 35.5446 122.074 35.5269C122.462 35.524 122.549 35.6416 122.547 36.0092C122.534 39.1927 122.546 42.3776 122.531 45.561C122.53 45.9522 122.627 46.0727 123.033 46.0698C125.556 46.0521 128.079 46.0521 130.601 46.0698C130.992 46.0727 131.074 45.9463 131.073 45.5831C131.06 42.3996 131.073 39.2147 131.057 36.0313C131.055 35.6372 131.154 35.524 131.557 35.5269C134.16 35.546 136.763 35.5446 139.366 35.5269C139.762 35.524 139.873 35.6298 139.872 36.0298C139.858 40.7601 139.864 45.489 139.864 50.2164Z" fill="#EF8903"></path><path d="M0.0145276 25.0987C0.0145276 24.8396 0.0145276 24.6748 0.0145276 24.51C0.0145276 16.5586 0.0196764 8.60538 0.00422997 0.653899C0.0025137 0.154464 0.11922 0 0.642682 0C13.1097 0.0154464 25.5784 0.0171627 38.0454 0C38.5963 0 38.713 0.157897 38.7113 0.684792C38.6941 8.84051 38.701 16.9979 38.6941 25.1536C38.6941 25.3424 38.8142 25.6085 38.5946 25.7097C38.4264 25.787 38.2685 25.581 38.1174 25.4797C34.8119 23.2795 31.5098 21.0741 28.2025 18.8773C26.0503 17.4476 23.6853 16.5843 21.1178 16.2857C20.7213 16.2393 20.4896 16.1329 20.5068 15.6438C20.5463 14.475 20.5377 13.3028 20.5102 12.1323C20.4999 11.7067 20.6407 11.5797 21.0508 11.6037C21.588 11.6346 22.1287 11.6003 22.6676 11.6157C22.9593 11.6243 23.119 11.5591 23.1069 11.2193C23.0863 10.6254 23.0898 10.0299 23.1052 9.43605C23.1121 9.1357 22.9834 9.04989 22.7053 9.05676C22.1853 9.06877 21.6618 9.02243 21.1452 9.07049C20.5995 9.12197 20.4862 8.89199 20.5102 8.40457C20.5463 7.68202 20.5085 6.95604 20.524 6.23178C20.5308 5.92456 20.4347 5.79584 20.112 5.80786C19.556 5.82674 18.9965 5.83188 18.4404 5.80614C18.0783 5.78898 17.9495 5.90568 17.9616 6.2764C17.9856 7.05558 17.9547 7.83649 17.9753 8.61739C17.9839 8.95721 17.8706 9.07735 17.5291 9.06705C16.8614 9.04646 16.1904 9.07392 15.5227 9.05676C15.1984 9.04817 15.0456 9.13399 15.0611 9.49097C15.0851 10.047 15.0885 10.6065 15.0593 11.1626C15.0405 11.5505 15.2087 11.6294 15.5536 11.6191C16.2213 11.5985 16.8923 11.626 17.56 11.6071C17.8775 11.5986 17.9787 11.7153 17.9753 12.0276C17.9633 13.2719 17.9633 14.5179 17.9753 15.7622C17.9787 16.0729 17.8723 16.1655 17.5617 16.1896C14.7744 16.411 12.1949 17.276 9.84189 18.7846C6.70283 20.7978 3.57579 22.8315 0.443595 24.855C0.33547 24.922 0.222196 24.9803 0.0145276 25.0987Z" fill="#008AAD"></path><path d="M124.944 29.3011C125.307 28.332 125.66 27.3834 126.019 26.4378C128.895 18.8492 131.772 11.2607 134.648 3.67221C135.065 2.57364 135.487 1.47654 135.892 0.373557C135.986 0.119135 136.094 -0.00145736 136.393 1.32864e-05C138.786 0.0132491 141.178 0.0132491 143.571 0.00148393C143.859 1.32864e-05 143.978 0.102958 144.077 0.366203C146.848 7.69001 149.626 15.0094 152.404 22.3303C153.22 24.4833 154.036 26.6378 154.852 28.7908C155.059 29.3349 155.06 29.3364 154.497 29.3364C151.723 29.3364 148.951 29.3261 146.179 29.3482C145.779 29.3511 145.631 29.2143 145.526 28.8555C145.213 27.7893 144.856 26.7363 144.534 25.673C144.443 25.3745 144.317 25.2348 143.976 25.2377C141.251 25.2524 138.526 25.2524 135.8 25.2377C135.462 25.2363 135.329 25.3598 135.237 25.6613C134.897 26.7701 134.53 27.8687 134.187 28.9776C134.113 29.2202 134.02 29.3467 133.737 29.3452C130.884 29.3349 128.033 29.3393 125.18 29.3379C125.119 29.332 125.057 29.3158 124.944 29.3011ZM139.923 11.1343C139.86 11.2298 139.825 11.2666 139.811 11.3093C139.028 13.777 138.252 16.2462 137.46 18.7095C137.352 19.0448 137.473 19.0919 137.759 19.0904C139.168 19.0831 140.579 19.0816 141.988 19.0919C142.318 19.0948 142.414 18.9963 142.31 18.6698C141.516 16.1741 140.728 13.677 139.923 11.1343Z" fill="#008AAD"></path><path d="M142.794 64.6463C143.154 63.6915 143.509 62.7484 143.868 61.8068C146.743 54.2765 149.619 46.7462 152.494 39.2145C152.917 38.1076 153.345 37.0008 153.751 35.888C153.846 35.6263 153.971 35.5254 154.261 35.5269C156.641 35.5386 159.02 35.5386 161.4 35.5283C161.697 35.5269 161.835 35.6102 161.946 35.9027C164.134 41.6651 166.336 47.4232 168.534 53.1813C169.938 56.8587 171.333 60.5376 172.75 64.2092C172.91 64.6215 172.839 64.7063 172.409 64.7034C169.601 64.6887 166.792 64.6902 163.985 64.7034C163.658 64.7048 163.516 64.6098 163.42 64.294C163.094 63.2046 162.723 62.1285 162.387 61.0421C162.295 60.7452 162.166 60.6151 161.825 60.6166C159.096 60.6326 156.368 60.6297 153.64 60.6195C153.335 60.618 153.191 60.7116 153.1 61.007C152.759 62.1255 152.385 63.2339 152.035 64.3481C151.968 64.5645 151.895 64.7004 151.623 64.699C148.737 64.6887 145.849 64.6917 142.962 64.6888C142.92 64.6931 142.877 64.6697 142.794 64.6463ZM157.782 46.6132C157.703 46.7302 157.668 46.7638 157.655 46.8047C156.874 49.2583 156.098 51.7133 155.31 54.1639C155.189 54.5441 155.413 54.5134 155.647 54.5134C157.058 54.5134 158.469 54.5002 159.88 54.5207C160.276 54.5265 160.277 54.3993 160.172 54.085C159.847 53.1111 159.551 52.1286 159.237 51.1504C158.762 49.6618 158.283 48.1748 157.782 46.6132Z" fill="#EF8903"></path><path d="M109.167 43.0233C108.299 42.6396 107.395 42.3584 106.457 42.2135C104.409 41.8986 102.358 41.7873 100.317 42.2559C97.6071 42.8784 95.9254 44.5655 95.314 47.2617C94.8125 49.4731 94.8257 51.6934 95.5104 53.8755C96.1292 55.8468 97.4913 57.1224 99.453 57.6569C102.743 58.5532 105.979 58.3335 109.092 56.8793C109.464 56.705 109.498 56.8031 109.497 57.1487C109.486 59.3206 109.486 61.4925 109.498 63.6644C109.499 63.9647 109.4 64.1184 109.126 64.2341C107.328 65.003 105.442 65.3574 103.5 65.4922C101.063 65.6621 98.651 65.5376 96.2846 64.9225C90.801 63.496 87.5489 59.9738 86.5387 54.4101C85.92 50.9948 86.0226 47.5941 87.0695 44.2726C88.5562 39.5553 91.7731 36.6028 96.5338 35.3287C98.8636 34.7048 101.245 34.5818 103.651 34.7195C105.269 34.8117 106.868 34.9875 108.431 35.4327C109.234 35.6626 109.234 35.6641 109.234 36.4798C109.234 38.4774 109.236 40.4751 109.233 42.4727C109.231 42.6411 109.272 42.8183 109.167 43.0233Z" fill="#EF8903"></path><path d="M19.3825 87.3016C13.1387 87.3016 6.8949 87.2947 0.651112 87.3136C0.12765 87.3153 0.00922731 87.1625 0.0109436 86.6614C0.0246737 76.925 0.0229575 67.1869 0.0160924 57.4505C0.0160924 57.0866 0.0847432 56.8515 0.443444 56.6507C3.23925 55.0854 6.08654 54.9413 9.03681 56.1993C10.5866 56.8601 12.1312 57.538 13.7583 58.0083C16.3842 58.7668 18.8762 58.3944 21.3184 57.2806C22.549 56.7193 23.7555 56.1032 25.0273 55.6295C27.8557 54.5757 30.4147 55.106 32.7608 56.9116C34.5612 58.2966 35.8055 60.1347 36.9399 62.0638C37.381 62.8155 37.8169 63.5724 38.3026 64.2967C38.5978 64.7378 38.7008 65.184 38.7008 65.7057C38.6905 72.6927 38.6888 79.6796 38.7042 86.6665C38.706 87.1763 38.5738 87.317 38.0589 87.3153C31.834 87.2964 25.6091 87.3016 19.3825 87.3016ZM20.2921 75.2156C20.2938 75.2156 20.2938 75.2156 20.2955 75.2156C20.2955 76.3294 20.2835 77.445 20.2973 78.5589C20.3264 80.9702 22.1663 83.5961 24.3837 84.5521C25.8116 85.1682 27.2859 85.2197 28.7962 85.2111C32.8535 85.1905 36.0252 82.0343 36.032 77.9736C36.0354 75.8746 36.032 73.7756 36.0337 71.6784C36.0337 71.4278 35.9634 71.1583 36.389 71.1446C36.7803 71.1309 37.3158 71.3677 37.532 71.0107C37.7157 70.7087 37.5955 70.2178 37.5973 69.8093C37.6007 68.6491 37.599 68.6423 36.4336 68.5891C36.1659 68.5771 36.0114 68.5221 36.0303 68.2149C36.056 67.7876 35.9891 67.3671 35.9376 66.9432C35.7025 64.9969 34.7654 63.4574 33.2654 62.2337C31.1681 60.5209 28.6932 60.5329 26.2304 60.8453C22.7035 61.2932 20.0707 64.6073 20.2973 68.045C20.3281 68.5135 20.1376 68.5942 19.7223 68.5925C18.3579 68.5873 18.5312 68.3883 18.5295 69.8093C18.5295 70.2298 18.3459 70.7584 18.6187 71.0468C18.8968 71.342 19.4305 71.1429 19.8493 71.1446C20.1874 71.1463 20.3007 71.2527 20.2973 71.5942C20.2818 72.8025 20.2921 74.009 20.2921 75.2156ZM17.7503 75.2087C17.6937 74.2871 17.819 73.3603 17.6473 72.4352C17.1307 69.6583 15.5535 67.7635 12.9671 66.6668C11.6524 66.1108 10.276 66.2566 8.9098 66.2189C7.43724 66.1777 6.08826 66.5467 4.84911 67.3328C2.95435 68.5341 1.80788 70.2641 1.48007 72.4593C1.22606 74.1635 1.25181 75.8987 1.45776 77.6149C1.80616 80.5189 3.38341 82.5286 6.05908 83.6596C7.78736 84.389 9.61691 84.3461 11.4224 84.0853C14.1788 83.6871 16.0718 82.1081 17.1891 79.5801C17.8069 78.1813 17.7915 76.695 17.7503 75.2087Z" fill="#EF8903"></path><path d="M0.0143395 46.8027C0.0143395 46.6001 0.0143395 46.4354 0.0143395 46.2723C0.0143395 40.401 0.0143395 34.5296 0.0143395 28.6583C0.0143395 28.3819 -0.00797204 28.1399 0.297524 27.9443C4.17629 25.4626 7.94866 22.8006 11.9373 20.5146C16.7514 17.7548 21.7578 17.9041 26.4827 20.796C30.5331 23.276 34.4118 26.0358 38.3713 28.6668C38.5927 28.8144 38.7025 28.9741 38.7025 29.2521C38.6956 35.9215 38.6973 42.5927 38.6956 49.2621C38.6956 49.3118 38.6768 49.3616 38.6544 49.468C38.2597 49.1437 37.9044 48.8313 37.5269 48.5447C35.6407 47.1116 33.4953 46.2758 31.1852 45.8501C30.7253 45.766 30.509 45.6356 30.5485 45.1207C30.6 44.4565 30.5811 43.7837 30.5536 43.1161C30.5382 42.7282 30.6601 42.5532 31.0531 42.6201C31.6109 42.7179 31.7619 42.4656 31.7121 41.9422C31.6692 41.4822 31.6881 41.0137 31.707 40.5503C31.7207 40.2328 31.5954 40.0869 31.2882 40.1435C30.6446 40.2602 30.5331 39.9616 30.5468 39.3781C30.5863 37.6138 30.5742 35.8477 30.5519 34.0834C30.5468 33.6663 30.6652 33.4861 31.0823 33.5616C31.6263 33.6595 31.7465 33.3934 31.7104 32.9077C31.6744 32.4272 31.6847 31.9415 31.7087 31.4592C31.7241 31.1177 31.5989 30.9615 31.2625 31.0216C30.648 31.1314 30.5331 30.8414 30.5502 30.287C30.588 28.9826 30.5622 28.9809 29.2047 28.9809C28.0136 28.9809 28.0136 28.9809 28.0136 30.1754C28.0136 30.3059 27.9998 30.438 28.017 30.565C28.0685 30.9478 27.8831 31.0319 27.5347 31.025C26.6251 31.0061 25.7138 31.0181 24.8041 31.0181C20.3075 31.0181 15.8109 31.0113 11.3143 31.0284C10.8474 31.0301 10.7033 30.8997 10.7256 30.4363C10.7479 29.9798 10.935 29.386 10.6432 29.0925C10.3274 28.7767 9.72671 28.9946 9.24959 28.9861C8.2593 28.9689 8.2593 28.9809 8.2593 29.9832C8.2593 30.0759 8.2593 30.1686 8.2593 30.2613C8.25587 31.1383 8.30907 31.0353 7.52474 31.0078C7.1094 30.9941 7.02359 31.1606 7.04246 31.5279C7.06821 32.029 7.07507 32.5319 7.04075 33.0313C7.01157 33.4484 7.14716 33.6303 7.56764 33.5565C8.12886 33.4569 8.28676 33.6749 8.27475 34.2464C8.23356 36.0108 8.24729 37.7768 8.2696 39.5411C8.27475 39.9788 8.19065 40.2259 7.6998 40.1367C7.14544 40.0354 6.98411 40.2826 7.04075 40.8094C7.08537 41.2316 7.07507 41.6659 7.04246 42.0898C7.00986 42.5034 7.14544 42.6905 7.56764 42.615C8.12715 42.5154 8.3125 42.7265 8.27475 43.3032C8.22154 44.0978 8.25415 44.901 8.26445 45.6991C8.26788 45.9943 8.18378 46.1093 7.87314 46.0235C5.29187 45.3147 2.80671 45.6819 0.379905 46.7014C0.276929 46.746 0.167087 46.7615 0.0143395 46.8027Z" fill="#D60037"></path><path d="M89.9399 88.465C89.9399 83.7821 89.9399 79.0977 89.9399 74.4148C89.9399 73.8101 89.9399 73.8101 90.5659 73.8101C93.0804 73.8101 95.5949 73.8219 98.1079 73.7998C98.5546 73.7954 98.659 73.9278 98.659 74.3603C98.6457 81.2736 98.656 88.1869 98.6384 95.1003C98.6369 95.5902 98.7662 95.7035 99.2438 95.7005C102.872 95.6799 106.501 95.6946 110.128 95.6814C110.541 95.6799 110.705 95.755 110.699 96.2213C110.673 98.3561 110.679 100.491 110.695 102.624C110.698 102.996 110.633 103.148 110.21 103.148C103.606 103.135 97.0027 103.135 90.3984 103.148C90.0031 103.149 89.9326 103.015 89.9326 102.658C89.9443 97.9265 89.9399 93.195 89.9399 88.465Z" fill="#D60037"></path><path d="M41.1842 56.994C41.1842 51.9035 41.1842 46.813 41.1842 41.7243C41.1842 41.0996 41.1911 41.091 41.7266 41.3845C47.416 44.5184 53.1037 47.6557 58.7932 50.7914C61.0844 52.0545 63.3808 53.3126 65.6668 54.5826C65.9431 54.7353 66.2212 54.7628 66.5215 54.7628C70.7573 54.7594 74.993 54.7697 79.2288 54.7491C79.7334 54.7474 79.8947 54.8692 79.8775 55.3892C79.8381 56.5769 79.8364 57.768 79.8775 58.9557C79.8947 59.4688 79.7214 59.5615 79.2477 59.5598C72.5783 59.5443 65.9088 59.5529 59.2394 59.5409C58.8069 59.5409 58.4654 59.6456 58.1221 59.9116C52.6403 64.1388 47.1483 68.3557 41.6579 72.5742C41.5429 72.6635 41.4159 72.8265 41.2821 72.7699C41.0933 72.6927 41.186 72.473 41.186 72.3185C41.1842 67.2109 41.1842 62.1016 41.1842 56.994ZM49.9424 57.8469C49.999 57.816 50.0539 57.7852 50.1106 57.756C50.5928 58.2657 51.0991 58.7548 51.5505 59.2903C51.9006 59.7057 52.1134 59.51 52.3829 59.22C52.6335 58.9471 52.9682 58.7514 52.5013 58.3481C51.9641 57.8847 51.4887 57.3509 50.8794 56.7399C51.7719 56.7399 52.491 56.7417 53.2101 56.7382C53.3715 56.7365 53.5963 56.8 53.6701 56.6284C53.8091 56.2972 53.7765 55.9247 53.7044 55.5883C53.6409 55.2931 53.3303 55.4304 53.1312 55.427C52.4207 55.4098 51.7101 55.4201 50.9996 55.4201C50.979 55.3652 50.9584 55.3086 50.9378 55.2537C51.4698 54.7405 52.0019 54.2273 52.5305 53.7107C52.6335 53.6095 52.8257 53.4979 52.7622 53.3606C52.6043 53.0208 52.3142 52.7582 52.0036 52.5694C51.7908 52.4407 51.6638 52.7325 51.5282 52.8629C51.0305 53.3417 50.5465 53.8343 49.9441 54.4333C49.9441 53.5597 49.9029 52.8732 49.9561 52.1953C50.0007 51.6255 49.7072 51.6152 49.2902 51.6272C48.904 51.6375 48.5625 51.5791 48.6088 52.1764C48.6637 52.8989 48.6226 53.6301 48.6226 54.3578C48.5728 54.3766 48.523 54.3938 48.4732 54.4127C47.9738 53.8909 47.4452 53.3915 46.9818 52.8406C46.6179 52.4064 46.3983 52.5969 46.1099 52.9024C45.8422 53.1855 45.5642 53.3898 46.019 53.7742C46.5768 54.2479 47.0762 54.7903 47.6014 55.3034C46.8016 55.4236 46.0653 55.4579 45.3342 55.4116C44.8141 55.3789 44.8021 55.6535 44.8313 56.0191C44.8588 56.3538 44.6665 56.7949 45.3222 56.7537C46.0327 56.7091 46.7467 56.7434 47.4606 56.7434C47.4915 56.8 47.5224 56.8549 47.5533 56.9116C47.0453 57.3904 46.5596 57.895 46.0224 58.3378C45.5624 58.7171 45.8456 58.9248 46.1116 59.2097C46.4017 59.5186 46.6179 59.6971 46.9852 59.2697C47.4486 58.7325 47.9858 58.2571 48.4904 57.7543C48.6225 58.5695 48.6517 59.3246 48.6123 60.0747C48.5848 60.5998 48.9109 60.5363 49.2215 60.5192C49.5373 60.502 49.9715 60.6839 49.9492 60.0661C49.9218 59.3246 49.9424 58.5849 49.9424 57.8469Z" fill="#D60037"></path><path d="M113.971 92.746C113.971 89.4786 113.979 86.2112 113.96 82.9438C113.957 82.5004 114.083 82.3767 114.521 82.3811C117.087 82.4002 119.654 82.4002 122.22 82.3811C122.63 82.3781 122.712 82.5122 122.712 82.8967C122.7 89.4801 122.7 96.0635 122.713 102.645C122.715 103.045 122.608 103.151 122.213 103.148C119.63 103.13 117.048 103.13 114.467 103.148C114.075 103.151 113.96 103.049 113.963 102.645C113.978 99.3456 113.971 96.0458 113.971 92.746Z" fill="#D60037"></path><path d="M41.174 89.9188C41.174 85.7208 41.1825 81.5228 41.1619 77.3265C41.1602 76.8254 41.3044 76.7087 41.7884 76.7121C44.4263 76.7361 47.0642 76.7327 49.7004 76.7138C50.1397 76.7104 50.3097 76.7962 50.3079 77.2853C50.2925 85.7174 50.2942 94.1494 50.3062 102.583C50.3062 103.048 50.1741 103.177 49.7124 103.174C47.0556 103.153 44.4005 103.151 41.7438 103.174C41.2632 103.177 41.1619 103.014 41.1637 102.568C41.1808 98.3526 41.174 94.1357 41.174 89.9188Z" fill="#008AAD"></path><path d="M67.2492 93.6499C67.2492 90.6962 67.2578 87.7425 67.2389 84.7888C67.2355 84.3357 67.347 84.1881 67.8207 84.1898C71.648 84.2087 75.4736 84.2087 79.3009 84.1898C79.7488 84.1881 79.8586 84.322 79.8569 84.7545C79.8432 90.6979 79.8449 96.6431 79.8569 102.587C79.8569 103.009 79.7642 103.163 79.306 103.16C75.4616 103.141 71.6154 103.143 67.7692 103.158C67.347 103.16 67.2372 103.029 67.2389 102.619C67.2561 99.6311 67.2492 96.6397 67.2492 93.6499ZM71.5999 92.9891C70.6732 92.984 69.9317 93.6791 69.9266 94.5595C69.9214 95.3988 70.7384 96.2312 71.5588 96.2209C72.4495 96.2089 73.1686 95.4709 73.1703 94.5698C73.1703 93.6516 72.5164 92.9943 71.5999 92.9891Z" fill="#EF8903"></path><path d="M19.3722 103.177C13.1679 103.177 6.96183 103.172 0.757515 103.187C0.258081 103.189 0.0881699 103.072 0.103616 102.547C0.141374 101.155 0.134509 99.7598 0.107049 98.3679C0.0984675 97.9165 0.210025 97.7638 0.687148 97.7689C2.9715 97.793 5.25758 97.7792 7.54193 97.7792C17.6851 97.7792 27.8282 97.7792 37.9714 97.7792C38.6974 97.7792 38.6974 97.7792 38.6974 98.4898C38.6974 99.8267 38.6734 101.165 38.7094 102.502C38.7248 103.029 38.591 103.191 38.0418 103.189C31.8186 103.168 25.5954 103.177 19.3722 103.177Z" fill="#D60037"></path><path d="M60.0941 89.8965C60.0941 85.6968 60.101 81.4988 60.0838 77.2991C60.0821 76.8306 60.2142 76.7139 60.6742 76.7139C66.8802 76.7293 73.0863 76.7293 79.2923 76.7139C79.7591 76.7122 79.8896 76.8392 79.8775 77.3026C79.8449 78.528 79.8398 79.7551 79.8793 80.9805C79.8964 81.5091 79.7626 81.6688 79.2116 81.6653C74.6034 81.6413 69.9953 81.6619 65.3871 81.6396C64.8465 81.6379 64.6697 81.7408 64.6714 82.3295C64.6954 89.0556 64.68 95.7816 64.6989 102.508C64.7006 103.038 64.5804 103.213 64.0295 103.189C62.9534 103.143 61.8739 103.146 60.7978 103.187C60.2503 103.208 60.0735 103.079 60.0787 102.492C60.1061 98.2943 60.0941 94.0945 60.0941 89.8965Z" fill="#D60037"></path><path d="M38.7008 59.8754C37.9765 58.9401 37.3449 57.9669 36.5829 57.0848C34.6367 54.8313 32.3248 53.1683 29.3231 52.6688C27.2481 52.3239 25.2692 52.7581 23.3642 53.5716C22.2212 54.059 21.0918 54.579 19.966 55.1042C17.7691 56.1288 15.5672 56.0756 13.3292 55.2312C11.6129 54.5842 9.97042 53.7552 8.19408 53.2575C5.56819 52.5212 3.01781 52.7564 0.532652 53.7947C0.0143382 54.011 0.00232429 53.8428 0.0109056 53.4206C0.0297846 52.4183 0.0538124 51.4125 0.00232429 50.4119C-0.025136 49.8747 0.191114 49.6104 0.630479 49.3805C3.28212 47.9868 5.98181 47.7998 8.7759 48.9377C10.4904 49.6362 12.1724 50.4136 13.9728 50.8959C16.3361 51.5309 18.5895 51.2563 20.7778 50.2317C21.6514 49.8232 22.5232 49.4096 23.3865 48.9771C24.9998 48.1688 26.6663 47.841 28.4941 48.0298C30.2602 48.2117 31.9764 48.4966 33.6172 49.1814C35.5703 49.9966 37.163 51.2478 38.2872 53.0653C38.5669 53.5167 38.7214 53.9801 38.7128 54.5293C38.6836 56.309 38.7008 58.0922 38.7008 59.8754Z" fill="#008AAD"></path><path d="M52.2936 31.0164C52.2936 35.2127 52.2885 39.409 52.3005 43.6052C52.3022 44.0549 52.2576 44.2145 51.7753 43.9519C48.3548 42.0915 44.9257 40.2465 41.4897 38.4118C41.1653 38.2385 41.1773 37.9982 41.1773 37.7167C41.1791 35.247 41.1791 32.7773 41.1791 30.3076C41.1791 26.3533 41.1876 22.3973 41.1688 18.443C41.1653 17.9127 41.3095 17.7428 41.8536 17.7462C45.1025 17.7702 48.3531 17.7719 51.602 17.7445C52.1889 17.7393 52.3074 17.9384 52.3056 18.4808C52.285 22.6599 52.2936 26.8373 52.2936 31.0164ZM50.7558 31.5296C50.7558 30.0827 50.7438 28.6342 50.7644 27.1874C50.7696 26.7909 50.6803 26.633 50.2444 26.6365C47.9068 26.6571 45.5676 26.6554 43.2283 26.6365C42.8078 26.633 42.6928 26.7652 42.6945 27.1771C42.71 30.0725 42.7083 32.9678 42.6962 35.8631C42.6945 36.2356 42.7838 36.3866 43.1905 36.3832C45.547 36.366 47.9051 36.3677 50.2616 36.3832C50.6563 36.3866 50.7679 36.2562 50.7627 35.8734C50.7438 34.4249 50.7558 32.9764 50.7558 31.5296Z" fill="#EF8903"></path><path d="M10.7359 45.1722C10.463 42.6596 12.0231 41.0686 13.8269 39.7419C18.7234 36.1395 25.7086 38.2608 27.89 43.9365C28.0445 44.3381 27.9878 44.7397 28.0136 45.143C28.0307 45.4125 27.9123 45.512 27.6514 45.4897C25.3087 45.2975 23.2595 46.1968 21.2412 47.2146C20.6456 47.5149 20.0346 47.7861 19.4288 48.0658C17.7159 48.8605 15.9653 48.9154 14.177 48.3524C13.1146 48.0178 12.0917 47.5818 11.0602 47.1648C10.8183 47.0669 10.7187 46.9279 10.729 46.6653C10.7479 46.1848 10.7359 45.7008 10.7359 45.1722Z" fill="#D60037"></path><path d="M52.7811 89.9344C52.7811 85.7381 52.7914 81.5418 52.7673 77.3455C52.7639 76.8135 52.9304 76.6968 53.4247 76.7105C54.5746 76.7448 55.7279 76.7465 56.8778 76.7088C57.3841 76.6916 57.53 76.8306 57.5283 77.3507C57.5111 84.8714 57.5162 92.3903 57.5162 99.911C57.5162 100.858 57.5042 101.806 57.5214 102.751C57.5283 103.112 57.4047 103.242 57.0391 103.237C55.8137 103.22 54.5883 103.211 53.3629 103.241C52.8892 103.253 52.7708 103.086 52.7708 102.633C52.7879 98.4007 52.7811 94.1667 52.7811 89.9344Z" fill="#D60037"></path><path d="M54.7771 39.1944C54.7771 37.2619 54.7891 35.3311 54.7668 33.4003C54.7616 32.9558 54.8578 32.7928 55.3417 32.7962C58.6473 32.8168 61.9545 32.8134 65.2601 32.7996C65.6634 32.7979 65.7938 32.894 65.8041 33.3214C65.9311 38.2402 65.8848 43.159 65.9294 48.0779C65.938 49.0767 65.9981 50.0773 66.0118 51.0779C66.0169 51.4641 65.9431 51.5739 65.5398 51.3971C64.8447 51.0916 64.5307 50.6883 64.5547 49.8508C64.6268 47.2712 64.5701 44.6882 64.5907 42.107C64.5942 41.6367 64.498 41.4651 63.9849 41.4719C61.7005 41.5011 59.4162 41.5011 57.1318 41.4719C56.6238 41.4651 56.5088 41.6281 56.5208 42.1052C56.5517 43.3495 56.5328 44.5938 56.5311 45.8381C56.5294 46.4766 56.5157 46.4834 55.9716 46.2106C54.7754 45.6099 54.7754 45.6099 54.7754 44.266C54.7771 42.5755 54.7771 40.885 54.7771 39.1944Z" fill="#EF8903"></path><path d="M119.01 68.4791C119.058 68.517 119.122 68.5621 119.18 68.6117C120.98 70.1409 122.778 71.6715 124.581 73.1964C124.783 73.3668 124.87 73.4848 124.619 73.709C122.344 75.7524 120.078 77.8059 117.814 79.8623C117.63 80.0298 117.502 80.0036 117.325 79.8608C116.032 78.8137 114.736 77.7695 113.433 76.734C113.213 76.5592 113.244 76.4252 113.386 76.2257C115.188 73.7047 116.984 71.1807 118.782 68.6568C118.836 68.584 118.867 68.482 119.01 68.4791Z" fill="#D60037"></path><path d="M19.3876 95.2342C17.4001 95.2342 15.411 95.2221 13.4235 95.2427C12.9825 95.2479 12.804 95.1569 12.8143 94.6695C12.8469 93.221 12.8366 91.7707 12.8177 90.3222C12.8125 89.9292 12.8915 89.7661 13.3343 89.7678C17.3847 89.7833 21.4351 89.7833 25.4838 89.7678C25.9214 89.7661 26.0072 89.9189 26.0021 90.317C25.9815 91.7845 25.9781 93.2519 26.0038 94.7193C26.0107 95.1501 25.8648 95.2462 25.4615 95.2427C23.438 95.2239 21.4128 95.2342 19.3876 95.2342Z" fill="#008AAD"></path><path d="M33.6344 95.2341C32.112 95.2341 30.5897 95.2186 29.0674 95.2444C28.6417 95.2512 28.5336 95.1122 28.5405 94.7038C28.5628 93.2381 28.5645 91.7706 28.5405 90.3032C28.5336 89.8827 28.6658 89.7678 29.0777 89.7712C32.1223 89.7866 35.1687 89.7866 38.2134 89.7712C38.615 89.7695 38.7128 89.9085 38.7094 90.2861C38.6922 91.7706 38.6905 93.2569 38.7111 94.7415C38.7162 95.1345 38.5909 95.2478 38.2048 95.2444C36.679 95.2221 35.1567 95.2341 33.6344 95.2341Z" fill="#008AAD"></path><path d="M5.17173 95.2342C3.66656 95.2342 2.16311 95.2222 0.657938 95.2428C0.26148 95.2479 0.101867 95.1638 0.108732 94.7262C0.134476 93.2416 0.131044 91.7553 0.110448 90.269C0.1053 89.8691 0.244318 89.7696 0.623613 89.7713C3.66999 89.785 6.71465 89.7867 9.76103 89.7696C10.1987 89.7662 10.2845 89.9206 10.2793 90.3188C10.2588 91.7862 10.2553 93.2536 10.2811 94.7193C10.2879 95.1484 10.1455 95.2496 9.74044 95.2428C8.21811 95.2205 6.69578 95.2342 5.17173 95.2342Z" fill="#008AAD"></path><path d="M10.7822 38.8443C10.6878 38.7739 10.7376 38.6332 10.7376 38.5113C10.7342 37.0268 10.7445 35.5405 10.729 34.0559C10.7256 33.7058 10.8131 33.5685 11.1924 33.5685C16.6501 33.5788 22.1079 33.5788 27.5656 33.5702C27.914 33.5702 28.0067 33.6938 28.005 34.0233C27.993 35.731 27.9998 37.437 27.9998 39.1498C22.3396 34.2567 16.6193 34.1537 10.7822 38.8443Z" fill="#EF8903"></path><path d="M74.243 47.5236C75.9336 47.5236 77.6241 47.5356 79.3129 47.515C79.7179 47.5099 79.8724 47.6077 79.8535 48.0385C79.7952 49.2965 79.766 50.558 79.7437 51.8177C79.7385 52.1129 79.627 52.2004 79.3455 52.2004C75.9284 52.1953 72.5113 52.1936 69.0942 52.2021C68.811 52.2021 68.6583 52.0923 68.6531 51.8349C68.6274 50.4807 68.6085 49.1266 68.6068 47.7725C68.6068 47.412 68.9243 47.5305 69.1183 47.5305C70.8259 47.5202 72.5336 47.5236 74.243 47.5236Z" fill="#EF8903"></path><path d="M64.3951 30.2578C64.2526 30.3814 64.0793 30.3213 63.9214 30.3213C61.0809 30.3247 58.2405 30.3144 55.4001 30.335C54.9092 30.3385 54.7565 30.1891 54.7668 29.7C54.796 28.4008 54.7908 27.1016 54.7685 25.8024C54.7616 25.3716 54.8921 25.212 55.3383 25.2205C56.7113 25.2446 58.086 25.2308 59.4591 25.2274C59.6908 25.2274 59.8916 25.2549 60.0615 25.4402C61.5014 27.0123 62.9448 28.5793 64.3865 30.1497C64.4071 30.1668 64.3933 30.2149 64.3951 30.2578Z" fill="#EF8903"></path><path d="M78.2763 45.0435C77.5606 45.0435 77.0251 45.0435 76.4913 45.0435C74.0594 45.0435 71.6257 45.0246 69.1938 45.0573C68.6137 45.0641 68.4661 44.8788 68.4815 44.3261C68.5158 43.1196 68.4987 41.9131 68.4729 40.7065C68.4644 40.3169 68.5364 40.1436 68.9827 40.1522C70.4861 40.1796 71.9913 40.1625 73.4947 40.1625C73.699 40.1625 73.8998 40.1522 74.0577 40.3289C75.4255 41.8598 76.7934 43.3873 78.2763 45.0435Z" fill="#EF8903"></path><path d="M153.946 87.7144C154.508 87.1943 155.163 86.973 155.916 87.0214C156.363 87.0492 156.775 87.1488 157.06 87.5093C157.235 87.7291 157.353 87.6514 157.518 87.5195C157.984 87.1474 158.521 87.0023 159.118 87.0199C160.071 87.0477 160.616 87.5606 160.664 88.5232C160.701 89.269 160.574 90.006 160.519 90.7474C160.501 90.9833 160.483 91.2207 160.477 91.458C160.471 91.6617 160.567 91.8185 160.783 91.7936C161.183 91.7467 161.161 91.9767 161.155 92.2551C161.15 92.5701 161.123 92.8324 160.719 92.8353C160.576 92.8368 160.432 92.8485 160.289 92.85C159.346 92.8602 159.043 92.5291 159.124 91.5709C159.189 90.7987 159.254 90.0265 159.32 89.2544C159.374 88.6097 159.143 88.2214 158.665 88.1672C158.058 88.0968 157.456 88.4763 157.39 89.0346C157.277 89.9914 157.21 90.9555 157.125 91.9152C157.1 92.1936 157.166 92.6038 156.934 92.6947C156.616 92.8177 156.21 92.7679 155.853 92.7181C155.611 92.6844 155.729 92.4353 155.742 92.28C155.825 91.2558 155.934 90.2331 156.001 89.2075C156.051 88.4529 155.853 88.1935 155.292 88.1642C154.567 88.1261 154.043 88.5349 153.987 89.1782C153.895 90.2492 153.784 91.3188 153.712 92.3928C153.692 92.6991 153.57 92.7474 153.302 92.7489C152.346 92.7577 152.353 92.7679 152.443 91.8038C152.572 90.4031 152.687 88.9994 152.82 87.5987C152.836 87.4228 152.736 87.1415 153.084 87.1518C153.384 87.1606 153.752 87.0331 153.832 87.5093C153.839 87.5664 153.889 87.6177 153.946 87.7144Z" fill="#EF8903"></path><path d="M50.5276 15.1701C50.3182 15.3177 50.1671 15.2748 50.0247 15.2748C47.2615 15.2782 44.4966 15.2679 41.7334 15.2868C41.2957 15.2902 41.1602 15.1718 41.1705 14.7273C41.1996 13.4675 41.1928 12.2043 41.1739 10.9446C41.167 10.5344 41.3043 10.3902 41.718 10.3954C43.1081 10.4143 44.5 10.4057 45.8919 10.4005C46.1065 10.4005 46.2901 10.4349 46.4411 10.6031C47.7935 12.1185 49.1511 13.6323 50.5276 15.1701Z" fill="#EF8903"></path><path d="M150.402 92.9534C150.043 92.9668 149.627 92.9564 149.369 92.4937C149.23 92.2438 149.099 92.4863 148.992 92.5562C148.336 92.9906 147.632 93.126 146.869 92.9415C146.38 92.824 146.002 92.5413 145.751 92.1114C145 90.8274 145.328 88.1762 146.968 87.3609C147.838 86.928 148.728 86.9071 149.624 87.2657C149.796 87.3341 149.906 87.4398 150.103 87.2359C150.274 87.0589 150.602 87.1169 150.827 87.2017C151.043 87.2835 150.929 87.5484 150.917 87.7239C150.831 88.9097 150.732 90.0939 150.627 91.2782C150.592 91.6784 150.657 91.9596 151.148 91.8837C151.343 91.8525 151.383 91.9611 151.374 92.1426C151.336 92.885 151.283 92.9371 150.402 92.9534ZM146.743 90.2338C146.733 91.2901 146.987 91.7126 147.674 91.848C148.252 91.9626 149.251 91.5014 149.307 91.0536C149.402 90.2903 149.443 89.5197 149.513 88.7535C149.532 88.5392 149.429 88.4247 149.251 88.3518C148.446 88.023 147.405 88.0988 146.94 89.1745C146.784 89.536 146.727 89.9124 146.743 90.2338Z" fill="#EF8903"></path><path d="M155.019 76.8923C156.924 76.8938 157.93 78.1404 157.69 79.9214C157.41 81.9934 155.639 83.0561 153.725 82.6319C152.644 82.393 152.077 81.7863 151.919 80.5469C151.739 79.1424 152.396 77.583 153.915 77.069C154.297 76.9401 154.686 76.8721 155.019 76.8923ZM153.277 79.9764C153.27 80.8524 153.526 81.3042 154.11 81.5069C154.776 81.7371 155.49 81.5445 155.906 80.9827C156.299 80.4557 156.396 79.8504 156.313 79.2076C156.243 78.6646 155.994 78.2534 155.442 78.0898C154.87 77.9203 154.333 78.0087 153.882 78.417C153.403 78.8528 153.264 79.4175 153.277 79.9764Z" fill="#EF8903"></path><path d="M165.062 87.021C166.557 86.9241 167.957 87.9781 167.632 90.2322C167.297 92.5503 165.24 93.4209 163.449 92.8544C162.323 92.4981 161.804 91.5932 161.847 90.1904C161.905 88.2852 163.194 87.015 165.062 87.021ZM166.29 89.7536C166.293 88.8532 165.927 88.3061 165.247 88.1972C164.364 88.0541 163.682 88.4417 163.385 89.2706C163.254 89.6343 163.161 90.0145 163.202 90.4036C163.263 90.9835 163.419 91.5351 164.04 91.7513C164.681 91.9749 165.286 91.8616 165.761 91.3592C166.181 90.9164 166.305 90.3529 166.29 89.7536Z" fill="#EF8903"></path><path d="M158.234 103.14C156.134 103.281 155.217 101.412 155.877 99.2468C156.469 97.303 158.493 96.7583 159.991 97.3928C160.753 97.716 161.152 98.346 161.28 99.1675C161.53 100.761 160.831 102.618 159.115 103.072C158.821 103.149 158.528 103.112 158.234 103.14ZM157.015 100.134C157.002 101.277 157.359 101.867 157.982 101.973C158.893 102.127 159.555 101.731 159.845 100.851C159.95 100.529 160.015 100.195 160.012 99.8558C160.002 98.6707 159.087 97.9973 158.052 98.4358C157.224 98.7844 157.045 99.5446 157.015 100.134Z" fill="#EF8903"></path><path d="M142.642 90.4341C142.115 90.4341 141.588 90.4505 141.061 90.4282C140.689 90.4118 140.668 90.59 140.747 90.8737C140.915 91.478 141.428 91.8389 142.165 91.8804C142.747 91.9131 143.31 91.8166 143.861 91.6443C144.109 91.5671 144.162 91.6325 144.168 91.8745C144.186 92.5977 144.119 92.6942 143.392 92.8605C142.67 93.0253 141.944 93.0892 141.211 92.9303C140.305 92.7343 139.662 92.216 139.473 91.288C139.182 89.8609 139.424 88.5512 140.617 87.5979C141.473 86.9133 142.475 86.8896 143.48 87.2282C144.031 87.4138 144.348 87.8622 144.525 88.4072C144.569 88.5438 144.611 88.6864 144.62 88.8289C144.652 89.3412 144.794 89.9352 144.494 90.3317C144.27 90.6286 143.715 90.4029 143.309 90.4326C143.09 90.4475 142.866 90.4341 142.642 90.4341ZM142.081 89.4749C142.414 89.4749 142.75 89.4763 143.083 89.4749C143.226 89.4734 143.369 89.4882 143.384 89.2685C143.414 88.8601 143.119 88.3626 142.748 88.2305C141.978 87.9573 141.127 88.4042 140.884 89.1912C140.819 89.4036 140.845 89.4838 141.077 89.4778C141.412 89.4674 141.747 89.4749 142.081 89.4749Z" fill="#EF8903"></path><path d="M138.146 103.127C137.833 103.142 137.422 103.166 137.175 102.734C137.066 102.542 136.93 102.644 136.81 102.729C136.121 103.218 135.332 103.178 134.56 103.102C133.813 103.028 133.383 102.451 133.358 101.588C133.325 100.46 133.527 99.3467 133.597 98.2262C133.599 98.2098 133.605 98.195 133.608 98.1786C133.746 97.3048 133.746 97.3196 134.644 97.333C134.962 97.3375 135.031 97.4564 135.004 97.7357C134.914 98.6616 134.839 99.5904 134.749 100.516C134.703 100.986 134.607 101.5 135.043 101.812C135.51 102.147 136.031 101.971 136.521 101.757C136.963 101.564 137.115 101.215 137.145 100.763C137.207 99.8342 137.279 98.9053 137.365 97.978C137.385 97.767 137.329 97.4326 137.553 97.3776C137.921 97.2869 138.327 97.2929 138.706 97.3835C138.848 97.4177 138.787 97.6094 138.775 97.7313C138.659 98.9618 138.54 100.191 138.42 101.421C138.382 101.805 138.43 102.118 138.939 102.059C139.146 102.035 139.175 102.144 139.184 102.315C139.219 103.034 139.118 103.126 138.146 103.127Z" fill="#EF8903"></path><path d="M149.703 103.129C149.347 103.15 148.911 103.16 148.667 102.673C148.587 102.511 148.477 102.631 148.394 102.694C147.7 103.194 146.902 103.183 146.112 103.113C145.273 103.038 144.779 102.248 144.862 101.186C144.948 100.1 145.039 99.0118 145.146 97.9267C145.166 97.7335 145.113 97.4214 145.332 97.3753C145.704 97.2965 146.107 97.2817 146.479 97.3902C146.633 97.4348 146.538 97.6443 146.526 97.7826C146.441 98.8215 146.33 99.859 146.279 100.9C146.234 101.814 146.693 102.148 147.594 101.921C148.321 101.738 148.563 101.469 148.637 100.723C148.738 99.7178 148.832 98.7116 148.909 97.7053C148.929 97.4496 148.996 97.3456 149.276 97.3352C150.32 97.298 150.362 97.3604 150.238 98.4054C150.115 99.4399 150.054 100.482 149.958 101.519C149.924 101.891 150.018 102.127 150.456 102.062C150.647 102.034 150.695 102.103 150.688 102.304C150.658 103.126 150.668 103.126 149.703 103.129Z" fill="#EF8903"></path><path d="M133.869 80.7173C133.974 79.5358 134.081 78.3529 134.18 77.1699C134.195 76.9886 134.274 76.9084 134.453 76.9173C134.47 76.9188 134.486 76.9158 134.501 76.9173C135.666 76.95 135.6 76.6885 135.459 77.9383C135.367 78.7348 135.305 79.5343 135.252 80.3353C135.2 81.1304 135.468 81.49 136.099 81.5376C136.84 81.5926 137.59 81.0932 137.65 80.472C137.743 79.4987 137.801 78.5208 137.886 77.5459C137.904 77.3334 137.846 77.008 138.08 76.9515C138.449 76.8638 138.851 76.8698 139.231 76.9589C139.353 76.9872 139.307 77.1551 139.296 77.2621C139.181 78.4911 139.063 79.7201 138.945 80.9491C138.909 81.3176 138.909 81.658 139.443 81.5792C139.677 81.545 139.703 81.6698 139.704 81.8615C139.707 82.4649 139.631 82.566 139.038 82.6611C138.52 82.7443 138.033 82.719 137.695 82.2405C137.537 82.0161 137.414 82.1959 137.295 82.2717C136.742 82.6165 136.143 82.7532 135.493 82.719C134.473 82.6655 133.926 82.1201 133.893 81.1051C133.888 80.9773 133.893 80.848 133.893 80.7187C133.882 80.7173 133.875 80.7173 133.869 80.7173Z" fill="#EF8903"></path><path d="M142.191 77.5588C142.842 77.0784 143.516 76.8563 144.283 76.8926C145.361 76.942 145.994 77.537 146.039 78.5834C146.069 79.2757 145.94 79.9593 145.895 80.6472C145.881 80.8504 145.858 81.0536 145.848 81.2567C145.834 81.5107 145.959 81.6268 146.227 81.6341C146.353 81.6384 146.63 81.5136 146.558 81.7981C146.485 82.0753 146.732 82.4875 146.296 82.6166C145.994 82.7066 145.665 82.7574 145.332 82.6994C144.723 82.592 144.499 82.3481 144.48 81.7473C144.456 81.0071 144.57 80.2757 144.638 79.5427C144.684 79.0522 144.791 78.5283 144.304 78.2017C143.772 77.8447 143.212 78.0319 142.691 78.2975C142.387 78.4528 142.222 78.6661 142.2 79.0362C142.14 80.0536 142.01 81.0652 141.937 82.0826C141.913 82.4294 141.823 82.5804 141.423 82.5716C140.547 82.5513 140.52 82.5716 140.584 81.7313C140.695 80.2771 140.841 78.8258 140.971 77.373C140.984 77.2279 140.987 77.0595 141.195 77.0813C141.482 77.1118 141.814 76.9289 142.049 77.2177C142.113 77.2975 142.133 77.4136 142.191 77.5588Z" fill="#EF8903"></path><path d="M72.4856 64.5162C72.4856 65.2199 72.4787 65.9253 72.489 66.629C72.4941 66.9207 72.4495 67.0512 72.1234 66.8881C70.807 66.2291 69.4649 66.1827 68.1159 66.7851C67.7486 66.9499 67.589 66.9121 67.5976 66.4522C67.6199 65.1186 67.6182 63.7834 67.5976 62.4498C67.5908 62.0328 67.7418 61.9023 68.1485 61.9075C69.446 61.9264 70.7435 61.9229 72.041 61.9092C72.3723 61.9058 72.5044 62.0002 72.4924 62.3486C72.4701 63.0694 72.4856 63.7937 72.4856 64.5162Z" fill="#EF8903"></path><path d="M55.3657 74.2716C54.6981 74.2716 54.0322 74.2699 53.3646 74.2716C53.1672 74.2716 52.9784 74.2647 52.9904 73.9918C53.0368 72.9226 52.8394 71.8379 53.1071 70.7824C53.5516 69.0232 55.5545 68.3573 56.8537 69.5278C57.4647 70.077 57.7136 70.8167 57.7514 71.6131C57.7874 72.3528 57.7445 73.0959 57.7651 73.8356C57.7754 74.1823 57.6432 74.2853 57.312 74.2767C56.6632 74.2578 56.0128 74.2716 55.3657 74.2716Z" fill="#EF8903"></path><path d="M70.0141 74.2716C69.3448 74.2716 68.6754 74.2681 68.0078 74.2733C67.783 74.275 67.5942 74.2544 67.6062 73.9575C67.6474 72.9586 67.5135 71.9546 67.7074 70.9592C68.0215 69.3373 69.7429 68.4517 71.0988 69.2446C71.8694 69.696 72.3036 70.4117 72.362 71.2938C72.4186 72.1451 72.3654 73.0032 72.3808 73.8562C72.386 74.1669 72.283 74.2853 71.9655 74.2767C71.315 74.2595 70.6646 74.2716 70.0141 74.2716Z" fill="#EF8903"></path><path d="M77.4438 74.2716C76.7762 74.2716 76.1069 74.2698 75.4392 74.2733C75.2367 74.2733 75.0582 74.2544 75.0702 73.9867C75.1183 72.9157 74.9175 71.8276 75.1887 70.7721C75.6091 69.1245 77.3357 68.4483 78.7293 69.3853C79.5171 69.9157 79.7591 70.7721 79.8226 71.6594C79.8758 72.3991 79.826 73.144 79.8398 73.8871C79.8449 74.1754 79.7402 74.2836 79.4502 74.2784C78.7808 74.263 78.1115 74.2716 77.4438 74.2716Z" fill="#EF8903"></path><path d="M79.8501 66.9654C79.2236 66.7903 78.7208 66.526 78.1424 66.4265C77.2242 66.2686 76.3746 66.4145 75.5474 66.7749C75.1938 66.9293 75.0548 66.9173 75.06 66.4797C75.0771 65.1067 75.0754 63.7319 75.06 62.3589C75.0565 62.0242 75.1561 61.9041 75.501 61.9075C76.8003 61.923 78.0995 61.9178 79.4004 61.911C79.675 61.9093 79.8569 61.9402 79.8552 62.292C79.8415 63.8315 79.8501 65.371 79.8501 66.9654Z" fill="#EF8903"></path><path d="M62.6805 74.2716C62.03 74.2716 61.3812 74.2698 60.7308 74.2716C60.5317 74.2716 60.3463 74.2596 60.3566 73.9884C60.3995 72.9157 60.2211 71.8327 60.4545 70.7721C60.6913 69.6994 61.8361 68.831 62.8023 68.934C63.9848 69.0575 64.9888 70.1062 65.0163 71.275C65.0369 72.1279 65.0094 72.9826 65.0318 73.8373C65.0403 74.1875 64.9082 74.287 64.5769 74.2784C63.9436 74.2578 63.3121 74.2716 62.6805 74.2716Z" fill="#EF8903"></path><path d="M161.332 76.8968C161.789 76.8708 162.238 76.946 162.687 77.043C162.977 77.1052 163.097 77.2441 163.025 77.5349C162.999 77.6406 162.967 77.752 162.973 77.8576C162.989 78.1962 162.86 78.2396 162.546 78.1528C161.938 77.9879 161.318 77.888 160.679 78.0009C160.36 78.0573 160.076 78.147 160.036 78.5073C159.991 78.9197 160.342 78.9718 160.625 79.0471C161.02 79.1527 161.423 79.2294 161.821 79.3191C162.458 79.4623 162.941 79.7937 163.025 80.4738C163.114 81.1828 162.92 81.818 162.29 82.242C161.478 82.7875 160.558 82.7615 159.641 82.679C159.316 82.6501 158.988 82.5893 158.673 82.475C158.476 82.4041 158.399 82.3057 158.413 82.0988C158.432 81.8325 158.365 81.4968 158.536 81.329C158.718 81.1495 158.976 81.4216 159.205 81.4809C159.81 81.6386 160.423 81.6487 161.038 81.5923C161.402 81.5576 161.687 81.3738 161.71 80.9875C161.733 80.6113 161.426 80.5013 161.121 80.4289C160.708 80.3305 160.288 80.2582 159.88 80.1424C159.268 79.9673 158.79 79.6447 158.714 78.9458C158.638 78.2555 159.005 77.5668 159.635 77.2224C160.163 76.9344 160.735 76.8621 161.332 76.8968Z" fill="#EF8903"></path><path d="M171.345 87.0234C171.769 86.9981 172.209 87.0442 172.64 87.1514C172.786 87.1871 172.971 87.2124 172.958 87.4371C172.941 87.7376 173.038 88.0605 172.876 88.3328C172.809 88.4444 172.644 88.3254 172.524 88.2971C171.893 88.1483 171.262 88.007 170.608 88.1483C170.294 88.2153 170.016 88.3224 170.009 88.7093C170.001 89.1051 170.337 89.1512 170.596 89.2271C170.958 89.3327 171.342 89.364 171.706 89.4667C172.264 89.6244 172.824 89.8282 172.949 90.5038C173.125 91.4487 172.844 92.2105 172.125 92.5929C170.976 93.2045 169.772 93.084 168.58 92.7164C168.227 92.6078 168.418 92.2715 168.417 92.0439C168.412 91.4606 168.428 91.4606 168.96 91.6525C169.598 91.8817 170.259 91.9189 170.923 91.8549C171.284 91.8207 171.611 91.6972 171.654 91.2433C171.697 90.7672 171.331 90.7017 171.018 90.6139C170.624 90.5038 170.213 90.4517 169.82 90.3371C169.242 90.169 168.763 89.8595 168.698 89.1825C168.627 88.4221 168.861 87.7852 169.538 87.3746C170.092 87.0412 170.701 86.9907 171.345 87.0234Z" fill="#EF8903"></path><path d="M60.3533 64.4408C60.3533 63.7526 60.3636 63.0661 60.3498 62.3779C60.343 62.0483 60.4648 61.9076 60.8029 61.9093C62.085 61.9196 63.367 61.9196 64.6491 61.9093C64.9494 61.9076 65.0284 62.0363 65.0267 62.3126C65.0181 63.7251 65.0146 65.1359 65.0284 66.5484C65.0318 66.9122 64.8756 66.9002 64.6233 66.7904C63.3121 66.2189 62.0043 66.1983 60.7034 66.823C60.3996 66.9689 60.3515 66.8127 60.3515 66.5587C60.355 65.8533 60.3533 65.1462 60.3533 64.4408Z" fill="#EF8903"></path><path d="M130.183 103.107C129.409 103.107 129.416 103.107 129.482 102.429C129.599 101.249 129.697 100.067 129.822 98.8885C129.852 98.5941 129.71 98.554 129.494 98.5808C129.167 98.6209 129.005 98.5005 129.083 98.1556C129.148 97.8642 128.888 97.3588 129.511 97.4138C129.833 97.4421 129.921 97.3291 129.968 96.9991C130.212 95.2598 131.299 94.4824 132.979 94.8124C133.14 94.8436 133.355 94.8466 133.352 95.0948C133.349 95.4115 133.392 95.7504 133.196 96.0224C133.124 96.1205 132.96 96.015 132.839 95.9912C131.962 95.8203 131.459 96.1443 131.296 96.9575C131.233 97.2756 131.279 97.4465 131.652 97.4138C131.95 97.3871 132.253 97.4198 132.553 97.4049C132.795 97.393 132.915 97.4688 132.875 97.7305C132.846 97.9207 132.812 98.111 132.806 98.3028C132.799 98.5466 132.666 98.5882 132.464 98.5808C132.211 98.5703 131.953 98.609 131.706 98.5718C131.27 98.5064 131.127 98.7071 131.1 99.1144C131.04 100.011 130.958 100.904 130.884 101.799C130.865 102.022 130.814 102.247 130.825 102.468C130.855 103.012 130.65 103.25 130.183 103.107Z" fill="#EF8903"></path><path d="M142.998 98.6075C141.992 98.6075 141.989 98.6075 141.905 99.6217C141.865 100.113 141.817 100.605 141.808 101.099C141.797 101.716 142.059 101.976 142.653 101.992C142.935 101.999 143.219 102.004 143.489 101.899C143.835 101.765 143.9 101.898 143.881 102.238C143.842 102.967 143.802 103.052 143.077 103.115C142.627 103.155 142.166 103.16 141.715 103.121C140.975 103.059 140.522 102.486 140.488 101.625C140.458 100.842 140.562 100.067 140.645 99.2915C140.712 98.6738 140.735 98.6664 140.144 98.6104C139.913 98.5883 139.837 98.5043 139.894 98.2743C139.921 98.1682 139.931 98.0503 139.919 97.9412C139.87 97.5107 140.032 97.3132 140.47 97.3928C140.755 97.4444 140.901 97.3102 140.965 97.0301C141.011 96.8297 141.09 96.6366 141.155 96.4405C141.304 95.9938 141.553 95.8641 142.008 95.9791C142.139 96.0115 142.196 96.0749 142.192 96.2076C142.189 96.271 142.188 96.3343 142.185 96.3992C142.175 96.7132 142.034 97.1569 142.183 97.3117C142.401 97.5373 142.835 97.3692 143.176 97.3928C143.284 97.4002 143.395 97.3943 143.505 97.3943C144.206 97.3943 144.197 97.3943 144.146 98.0974C144.12 98.4512 144.017 98.6694 143.61 98.6104C143.409 98.5839 143.202 98.6075 142.998 98.6075Z" fill="#EF8903"></path><path d="M150.369 78.1301C149.255 78.1301 149.258 78.1301 149.199 79.2591C149.176 79.7071 149.113 80.1536 149.103 80.6002C149.086 81.3212 149.415 81.6283 150.148 81.5808C150.42 81.563 150.692 81.4948 150.959 81.4325C151.17 81.3835 151.246 81.4325 151.255 81.6594C151.284 82.3389 151.123 82.5644 150.461 82.646C149.964 82.7068 149.469 82.7751 148.962 82.6683C148.242 82.5155 147.791 82.0437 147.743 81.3138C147.682 80.3969 147.814 79.489 147.901 78.5796C147.933 78.2532 147.922 78.0737 147.542 78.1316C147.085 78.2013 147.057 77.9787 147.097 77.6019C147.147 77.1435 147.249 76.8364 147.811 76.9566C147.997 76.9966 148.104 76.8854 148.158 76.7014C148.244 76.4092 148.353 76.1243 148.451 75.835C148.509 75.66 148.582 75.5383 148.814 75.525C149.486 75.4849 149.565 75.5531 149.48 76.2282C149.468 76.3231 149.445 76.4181 149.426 76.5115C149.358 76.826 149.433 76.9907 149.81 76.9684C150.28 76.9403 150.752 76.9729 151.224 76.9581C151.49 76.9492 151.577 77.0575 151.538 77.3008C151.511 77.4743 151.464 77.6494 151.467 77.8245C151.473 78.0945 151.332 78.1449 151.101 78.133C150.857 78.1197 150.612 78.1301 150.369 78.1301Z" fill="#EF8903"></path><path d="M133.261 87.0165C133.387 87.0165 133.512 87.012 133.638 87.018C134.505 87.0599 134.723 87.3934 134.437 88.2235C134.366 88.4284 134.254 88.3477 134.143 88.3043C133.733 88.1487 133.308 88.1502 132.886 88.1801C132.191 88.231 131.697 88.6139 131.463 89.2735C131.209 89.9899 131.109 90.7437 131.644 91.3823C132.175 92.0165 132.888 91.8924 133.571 91.7398C134.218 91.5947 134.185 91.5723 134.114 92.2842C134.076 92.6611 133.923 92.8152 133.588 92.89C132.92 93.038 132.257 93.0874 131.588 92.9004C130.442 92.5804 129.789 91.4452 129.944 90.0407C130.158 88.1024 131.37 86.9926 133.261 87.0165Z" fill="#EF8903"></path><path d="M43.8873 74.1394C44.9583 73.3242 46.031 72.5124 47.0985 71.6937C48.1694 70.8716 49.2352 70.0444 50.4074 69.1365C50.4074 69.4746 50.4074 69.72 50.4074 69.9637C50.4074 71.2441 50.4057 72.5227 50.4092 73.803C50.4092 74.057 50.4246 74.2784 50.0522 74.275C48.015 74.2647 45.9795 74.2698 43.9422 74.2698C43.9234 74.2269 43.9045 74.184 43.8873 74.1394Z" fill="#EF8903"></path><path d="M130.055 84.7731C129.875 84.7219 129.55 84.8928 129.455 84.646C129.33 84.3276 129.482 83.9639 129.533 83.625C129.558 83.4643 129.775 83.5505 129.905 83.5519C130.639 83.5593 130.832 83.4439 130.921 82.7004C131.066 81.4807 131.149 80.2538 131.254 79.0297C131.297 78.5272 131.335 78.0233 131.362 77.5208C131.38 77.2024 131.485 77.0549 131.84 77.0607C132.69 77.0753 132.711 77.0578 132.644 77.8962C132.508 79.5921 132.388 81.2908 132.185 82.9794C132.037 84.2224 131.33 84.7716 130.055 84.7731Z" fill="#EF8903"></path><path d="M152.301 103.09C151.479 103.09 151.507 103.093 151.581 102.377C151.716 101.055 151.813 99.7285 151.925 98.4053C151.937 98.2614 151.931 98.116 151.947 97.9721C152.016 97.3357 152.388 97.1087 152.996 97.3194C153.082 97.349 153.137 97.3906 153.141 97.4781C153.17 98.0299 153.392 97.7333 153.593 97.5923C153.851 97.4084 154.127 97.2615 154.445 97.2037C155.288 97.0509 155.367 97.128 155.307 97.9929C155.282 98.3445 155.179 98.5047 154.793 98.4661C154.168 98.4023 153.636 98.6619 153.284 99.1796C153.005 99.5876 153.124 100.111 153.063 100.58C152.983 101.199 152.954 101.825 152.918 102.448C152.89 102.925 152.793 103.295 152.301 103.09Z" fill="#EF8903"></path><path d="M136.885 87.7442C137.432 87.2381 137.997 86.9657 138.687 87.0222C138.943 87.0431 139.084 87.0982 138.987 87.3929C138.968 87.4524 138.971 87.5194 138.966 87.5849C138.918 88.2562 138.92 88.2562 138.268 88.2964C137.404 88.35 136.828 88.9558 136.775 89.8236C136.725 90.6572 136.637 91.4877 136.579 92.3213C136.553 92.7039 136.428 92.8706 136.004 92.8482C135.202 92.8066 135.202 92.8378 135.269 92.0489C135.397 90.5455 135.537 89.0421 135.643 87.5373C135.666 87.2038 135.788 87.1413 136.074 87.1458C136.465 87.1517 136.89 87.0565 136.885 87.7442Z" fill="#EF8903"></path><path d="M62.0146 46.7529C62.0146 47.5115 62.006 48.2718 62.018 49.0304C62.0232 49.3565 61.9271 49.432 61.6353 49.2707C60.8595 48.8399 60.0821 48.4126 59.2977 47.9972C59.0884 47.8857 59.0128 47.7381 59.0146 47.5098C59.0214 46.4921 59.0266 45.4726 59.0128 44.4549C59.0077 44.127 59.1433 44.043 59.4436 44.0498C60.1662 44.0635 60.8887 44.0653 61.6096 44.0498C61.9322 44.043 62.0249 44.1734 62.018 44.4772C62.0043 45.234 62.0146 45.9926 62.0146 46.7529Z" fill="#EF8903"></path><path d="M57.748 63.4985C57.748 64.7325 57.748 65.8189 57.748 66.9757C56.5191 66.4007 55.2714 66.1141 53.9464 66.5998C53.931 66.5535 53.9155 66.5054 53.9018 66.4591C55.1495 65.4997 56.3955 64.5386 57.748 63.4985Z" fill="#EF8903"></path><path d="M132.418 74.3145C132.874 74.3199 133.181 74.5952 133.183 75.0043C133.184 75.4869 132.754 75.8759 132.238 75.8585C131.783 75.8425 131.463 75.5564 131.466 75.1661C131.471 74.6835 131.889 74.3092 132.418 74.3145Z" fill="#EF8903"></path><path d="M69.271 8.38221C71.3339 8.37706 73.0347 10.0796 73.0107 12.1443C72.985 14.4321 71.2635 15.896 69.2263 15.9287C67.1462 15.9613 65.4694 14.2141 65.4728 12.1254C65.4746 10.0315 67.1531 8.37878 69.271 8.38221Z" fill="#EF8903"></path><path d="M28.1148 68.5821C26.4998 68.5821 24.8831 68.5701 23.2681 68.5907C22.8751 68.5958 22.7704 68.4688 22.7669 68.0827C22.7343 65.3264 24.7767 63.2531 27.5467 63.2394C28.7533 63.2342 29.9512 63.2016 31.0668 63.8092C32.632 64.6622 33.6343 66.5072 33.4679 68.256C33.4301 68.6473 33.1915 68.5804 32.9616 68.5804C31.3466 68.5838 29.7298 68.5821 28.1148 68.5821ZM28.4306 67.7085C29.299 67.7068 30.0164 66.9911 30.0164 66.1296C30.0164 65.2663 29.2973 64.554 28.4289 64.554C27.509 64.554 26.7744 65.2543 26.7744 66.1313C26.7744 67.0083 27.5124 67.7103 28.4306 67.7085Z" fill="#EF8903"></path><path d="M31.3569 77.3265C31.3569 76.918 31.3826 76.5061 31.35 76.1011C31.3174 75.6926 31.489 75.5828 31.8649 75.612C32.2167 75.6377 32.572 75.6411 32.9238 75.612C33.3237 75.5776 33.4988 75.6892 33.4679 76.1286C33.3975 77.1068 33.5468 78.092 33.3581 79.0702C32.9822 81.0199 31.1149 82.6298 29.1412 82.6281C28.1989 82.6264 27.2464 82.7551 26.3111 82.532C24.3202 82.0583 22.827 80.2287 22.779 78.1949C22.7618 77.4896 22.7944 76.7825 22.767 76.0771C22.7532 75.6995 22.8957 75.6137 23.2509 75.6085C24.7681 75.5914 24.7595 75.5811 24.7733 77.0982C24.7784 77.7075 24.7081 78.3185 24.8591 78.9278C25.1388 80.0537 25.9781 80.7402 27.1349 80.7453C27.8042 80.7488 28.4735 80.7573 29.1412 80.7436C30.4044 80.7161 31.3414 79.7585 31.3535 78.497C31.3586 78.1057 31.3569 77.7161 31.3569 77.3265Z" fill="#EF8903"></path><path d="M28.1217 71.1549C29.7367 71.1549 31.35 71.1669 32.965 71.1463C33.3563 71.1411 33.4679 71.263 33.4679 71.6509C33.4713 73.0462 33.4851 73.0427 32.0812 73.0479C31.5646 73.0496 31.0463 73.0084 30.5348 73.1474C29.5445 73.4169 28.8855 74.2321 28.8769 75.2499C28.87 76.0857 28.8666 76.9198 28.8786 77.7556C28.8838 78.0611 28.7859 78.1727 28.4667 78.1847C27.3391 78.2259 27.3391 78.2379 27.3391 77.088C27.3391 76.568 27.3391 76.0497 27.3391 75.5296C27.3374 74.0519 26.3608 73.0685 24.8677 73.0496C24.2927 73.0428 23.7178 73.041 23.1411 73.0513C22.8871 73.0565 22.7498 72.9724 22.7738 72.7012C22.7755 72.6823 22.7738 72.6635 22.7738 72.6463C22.6897 71.1566 22.6897 71.1566 24.1692 71.1566C25.4873 71.1549 26.8053 71.1549 28.1217 71.1549Z" fill="#EF8903"></path><path d="M5.68142 72.4728C5.32787 72.4728 4.97603 72.4763 4.62248 72.4711C4.10417 72.4642 4.04238 72.3647 4.23804 71.8721C4.84045 70.3618 5.89252 69.2857 7.4835 68.9304C9.47266 68.4876 11.4652 68.4327 13.245 69.6959C14.0877 70.2932 14.6318 71.1187 14.9561 72.1004C15.0643 72.4282 14.9527 72.4797 14.6609 72.4745C13.9744 72.4625 13.2862 72.466 12.5997 72.4728C11.2885 72.4865 10.3771 73.4116 10.3737 74.7211C10.3737 75.2412 10.3548 75.7612 10.3806 76.2812C10.3977 76.6296 10.2639 76.7292 9.92919 76.7206C8.58706 76.6863 8.88569 76.8888 8.83249 75.6462C8.80503 75.0043 8.97322 74.347 8.67803 73.724C8.28843 72.9036 7.62767 72.5054 6.73692 72.4745C6.38509 72.4625 6.03154 72.4728 5.67799 72.4728C5.68142 72.4745 5.68142 72.4728 5.68142 72.4728Z" fill="#EF8903"></path><path d="M9.56368 81.6224C8.26275 81.7477 7.04076 81.5452 5.96638 80.7523C4.67746 79.8015 3.98237 78.528 3.92745 76.9216C3.91028 76.4016 3.9326 75.8815 3.92058 75.3615C3.91543 75.0955 3.9755 74.9427 4.28615 74.9513C4.8611 74.9668 5.43777 74.9633 6.01443 74.953C6.28732 74.9479 6.36627 75.0715 6.36112 75.3255C6.35082 75.8455 6.38858 76.3672 6.35254 76.8855C6.25471 78.2792 7.18321 79.115 8.35371 79.2471C9.26848 79.3501 10.2073 79.393 11.1238 79.1922C12.2737 78.9399 12.9293 78.1127 12.9447 76.9302C12.9516 76.4101 12.9602 75.8901 12.9413 75.3701C12.9293 75.0543 13.0477 74.9273 13.3601 74.9547C13.9453 75.0079 14.6782 74.7093 15.0781 75.0835C15.4076 75.3924 15.1347 76.1081 15.1776 76.6418C15.3544 78.9107 13.5317 81.1676 11.2799 81.571C10.7067 81.6739 10.1335 81.595 9.56368 81.6224Z" fill="#EF8903"></path><path d="M45.1865 31.5056C45.1865 30.8568 45.1951 30.2081 45.1814 29.561C45.1762 29.2727 45.2346 29.1131 45.5744 29.1217C46.3158 29.1405 47.0573 29.1371 47.797 29.1234C48.087 29.1182 48.1866 29.2246 48.1849 29.513C48.1746 30.8465 48.1746 32.1801 48.1849 33.5153C48.1866 33.8088 48.0716 33.9032 47.7901 33.898C47.0487 33.886 46.3073 33.8843 45.5676 33.898C45.2775 33.9032 45.1762 33.7951 45.1814 33.5085C45.1968 32.8408 45.1865 32.1732 45.1865 31.5056Z" fill="#EF8903"></path></svg>